PathFileType	4	(X/Y/Z)	C:/Users/beibeiliu/ov580/test_trc/capture2\sequence.37_training_dense_right.trc
DataRate	CameraRate	NumFrames	NumMarkers	Units	OrigDataRate	OrigDataStartFrame	OrigNumFrames
120	120	10	19	mm	120	232	370
Frame#	Time	ThumbCMC			ThumbMCP			ThumbIP			ThumbTip			IndexMCP			IndexPIP			IndexTip			MiddleMCP			MiddlePIP			MiddleTip			RingMCP			RingPIP			RingTip			PinkyMCP			PinkyPIP			PinkyTip			BackHand1			BackHand2			BackHand3	
		X0	Y0	Z0	X1	Y1	Z1	X2	Y2	Z2	X3	Y3	Z3	X4	Y4	Z4	X5	Y5	Z5	X6	Y6	Z6	X7	Y7	Z7	X8	Y8	Z8	X9	Y9	Z9	X10	Y10	Z10	X11	Y11	Z11	X12	Y12	Z12	X13	Y13	Z13	X14	Y14	Z14	X15	Y15	Z15	X16	Y16	Z16	X17	Y17	Z17	X18	Y18	Z18	
231	1.925	150.975	38.9403	27.6856	135.378	46.0235	0.160715	130.717	50.8363	-23.6745	126.765	42.0472	-48.1595	155.876	16.6403	-40.4448	124.567	24.2803	-50.7412	103.828	28.239	-25.9301	147.02	-7.75284	-39.9241	116.454	4.72274	-49.0539	99.9488	14.6902	-22.3911	141.14	-21.2923	-34.4648	114.039	-12.4808	-43.105	100.836	2.3604	-16.105	133.937	-41.3652	-20.6933	108.716	-26.1237	-33.0866	101.21	-2.4867	-17.2267	163.754	-25.521	18.9506	164.187	-21.3279	47.1107	174.216	4.84003	26.9077	
232	1.93333	149.942	36.0229	29.9416	133.696	43.1048	2.78321	130.604	48.1364	-26.8233	125.43	45.5578	-50.1443	152.398	15.6052	-42.2388	123.415	22.9145	-48.1121	103.817	27.6871	-24.5885	144.476	-6.32363	-42.3853	117.081	3.76675	-48.395	100.847	16.5233	-13.5795	138.052	-24.3693	-36.0845	110.759	-8.06151	-39.6229	103.809	6.67154	-12.0376	134.772	-37.9339	-22.8499	109.75	-23.4592	-33.6129	102.834	-4.12114	-15.9607	163.021	-27.5668	15.8931	162.401	-21.2938	51.1524	175.098	10.0115	28.46	
233	1.94167	149.906	36.4865	28.9185	134.488	45.8019	1.41214	130.777	48.6154	-27.4846	125.399	49.3764	-48.133	153.442	17.4631	-39.0313	121.057	24.9831	-47.2956	104.88	27.7059	-23.5682	147.677	-2.06785	-41.6084	116.83	7.01347	-47.1904	102.272	19.6061	-13.6019	138.452	-21.9519	-35.102	109.847	-11.5606	-38.9328	103.035	5.44796	-8.05907	133.592	-38.2371	-20.2015	107.52	-22.9873	-31.8	101.185	-4.16826	-11.1156	163.66	-26.5711	19.8644	164.427	-20.0489	46.035	173.611	5.66519	28.1817	
234	1.95	149.045	36.7563	28.7086	134.59	43.2401	-0.755698	129.91	49.1306	-28.0725	126.178	45.4473	-49.5367	149.665	15.2975	-42.7112	120.468	23.1262	-46.3665	104.882	31.3919	-18.982	146.321	-4.71714	-40.2141	116.836	6.55894	-47.6189	102.909	18.2869	-12.7336	138.731	-20.6559	-35.4072	109.311	-10.5115	-39.5495	105.188	8.6962	-7.11511	131.575	-39.6917	-22.5906	110.976	-23.7013	-33.5093	104.044	-2.32394	-12.8693	164.561	-26.3401	16.6406	163.751	-19.7627	45.7582	172.875	5.76093	26.0136	
235	1.95833	150.107	36.6737	23.8902	134.009	45.3929	0.408869	129.703	50.5177	-29.0609	125.011	50.4062	-49.9919	150.56	19.2412	-41.1193	120.093	27.5642	-46.3202	104.709	25.7465	-20.3505	145.498	-3.21136	-41.7757	113.072	7.53645	-45.261	101.904	16.7428	-15.2324	138.195	-21.7875	-33.4981	108.693	-11.5923	-39.1542	102.964	5.41119	-9.71544	134.362	-35.8396	-22.204	105.98	-23.0319	-31.4643	102.616	-4.2509	-10.7928	165.372	-22.7315	16.5267	163.605	-19.088	45.0774	174.676	6.36903	24.3454	
236	1.96667	150.752	37.1708	24.4666	133.971	45.7061	2.04023	130.179	47.4104	-28.0305	125.817	46.1127	-51.9585	150.766	15.3933	-40.8079	122.052	27.0572	-46.4075	104.931	31.5539	-17.3502	145.253	-4.37223	-41.1725	116.091	6.88273	-47.1522	101.543	15.8459	-11.2737	136.053	-22.6335	-36.2363	108.474	-11.8694	-39.6933	103.068	5.81351	-12.0491	133.419	-35.863	-26.0133	110.137	-22.4775	-33.3359	105.36	0.085302	-10.1145	161.709	-28.0547	16.0684	161.671	-18.6144	48.1441	173.259	5.40461	23.6843	
237	1.975	151.869	37.4528	24.501	135.314	47.62	-0.197782	131.114	48.7158	-26.9248	125.792	46.3057	-49.5623	152.591	13.9601	-39.9628	123.473	21.103	-46.8219	103.691	27.1929	-16.2476	144.294	-5.45397	-43.2924	113.618	5.359	-45.8164	100.431	16.5681	-13.0828	136.624	-22.7094	-37.836	111.468	-10.4646	-41.0414	101.315	4.27255	-12.6047	133.123	-37.8383	-23.864	106.586	-24.9098	-33.0783	104.401	-2.60728	-12.0333	165.212	-25.6633	15.3852	164.046	-18.9449	46.0251	175.528	5.03108	26.6532	
238	1.98333	151.418	36.9252	28.9767	135.752	45.1409	1.33638	130.652	52.6634	-26.0014	125.208	50.631	-47.3496	152.061	12.835	-40.1819	125.844	25.1734	-48.9546	104.692	28.5111	-22.4277	146.074	-6.11301	-41.663	112.503	3.66107	-45.6608	98.7184	15.6876	-19.2129	139.264	-23.1931	-36.1679	110.99	-13.0738	-42.3459	101.697	6.04599	-11.5303	132.132	-40.2035	-23.2336	111.277	-26.3495	-35.3983	101.373	-1.1454	-16.4901	164.839	-25.2597	18.319	160.391	-21.5457	48.8596	175.482	5.41421	25.5191	
239	1.99167	151.895	38.4788	24.8969	136.814	45.3436	3.38734	130.848	52.8002	-23.1948	126.304	50.4116	-49.9161	155.355	16.5499	-39.6908	127.212	22.5403	-50.458	103.285	28.6309	-27.0194	146.844	-6.77134	-40.9304	116.691	0.494655	-49.7341	97.9461	18.3609	-22.4436	138.617	-25.4297	-37.5875	110.947	-12.8792	-43.1781	99.3317	5.34275	-15.8163	133.647	-41.0118	-19.6817	113.408	-28.0998	-35.8684	98.1972	-3.28981	-16.5252	162.279	-24.6813	15.2399	161.939	-19.0651	46.0152	173.451	5.00884	28.6654	
240	2	151.42	34.8622	27.7277	137.5	49.9588	1.71643	132.283	53.57	-21.5495	126.881	55.8566	-44.8434	153.288	12.3327	-41.6632	124.078	20.0736	-51.1075	103.786	27.644	-32.292	146.107	-7.9693	-42.0069	119.336	1.89391	-51.0523	96.9119	19.3945	-24.2392	140.878	-24.7881	-35.2333	113.679	-12.4914	-45.219	99.804	5.03855	-25.1275	134.039	-42.0899	-23.4504	114.04	-28.9119	-37.287	100.041	-5.75136	-21.2081	161.797	-27.3501	20.3106	161.944	-22.4229	51.6387	174.836	3.88651	27.1416	
